<?xml version="1.0" standalone="no"?>
<!DOCTYPE svg PUBLIC "-//W3C//DTD SVG 20010904//EN"
 "http://www.w3.org/TR/2001/REC-SVG-20010904/DTD/svg10.dtd">
<svg version="1.0" xmlns="http://www.w3.org/2000/svg"
 width="260.000000pt" height="260.000000pt" viewBox="0 0 260.000000 260.000000"
 preserveAspectRatio="xMidYMid meet">
<metadata>
Created by potrace 1.11, written by Peter Selinger 2001-2013
</metadata>
<g transform="translate(0.000000,260.000000) scale(0.100000,-0.100000)"
fill="#000000" stroke="none">
<path d="M1493 2520 c-7 -18 -7 -32 -2 -36 8 -5 29 35 29 57 0 20 -16 7 -27
-21z"/>
<path d="M1073 2495 c1 -22 7 -35 16 -35 9 0 11 7 7 23 -3 12 -6 28 -6 35 0 6
-4 12 -10 12 -5 0 -9 -16 -7 -35z"/>
<path d="M1427 2498 c18 -18 36 -29 39 -25 10 10 -36 57 -55 57 -11 0 -6 -10
16 -32z"/>
<path d="M1128 2479 c-18 -10 -25 -29 -10 -29 4 0 18 9 32 20 27 21 10 28 -22
9z"/>
<path d="M1513 2477 c-3 -5 -3 -11 0 -13 7 -8 57 7 57 17 0 11 -50 8 -57 -4z"/>
<path d="M996 2461 c-3 -5 5 -12 18 -15 13 -3 31 -9 40 -12 27 -10 18 12 -9
24 -31 14 -42 15 -49 3z"/>
<path d="M1412 2449 c-13 -5 -20 -13 -17 -19 4 -6 17 -4 36 5 45 24 31 35 -19
14z"/>
<path d="M790 2429 c0 -26 12 -59 21 -59 15 0 10 47 -6 60 -12 10 -15 10 -15
-1z"/>
<path d="M1088 2435 c-3 -3 3 -41 13 -83 10 -43 20 -89 23 -103 2 -13 10 -46
16 -74 6 -27 14 -61 16 -75 2 -14 11 -56 19 -95 8 -38 17 -83 20 -100 2 -16
16 -91 30 -165 35 -188 37 -195 31 -189 -10 10 -256 653 -256 670 0 5 7 9 15
9 8 0 15 5 15 10 0 6 -5 10 -11 10 -6 0 -9 7 -6 15 7 17 -9 30 -18 15 -5 -7
-12 -5 -21 7 -13 17 -13 17 -14 -3 0 -13 -9 -24 -22 -29 -20 -6 -20 -8 -5 -12
9 -2 17 -13 17 -24 0 -21 16 -26 22 -7 2 6 14 -18 27 -53 26 -74 62 -171 119
-319 22 -58 57 -148 77 -200 20 -52 45 -102 56 -112 10 -9 19 -23 19 -32 0 -8
4 -17 9 -20 13 -9 19 15 11 39 -4 11 -11 42 -14 70 -4 27 -13 78 -21 114 -7
36 -16 86 -20 111 -4 24 -8 47 -10 50 -2 3 -6 23 -9 45 -8 48 -73 366 -86 415
-5 19 -12 51 -15 70 -6 36 -17 54 -27 45z"/>
<path d="M1470 2437 c0 -4 -7 -51 -15 -105 -9 -53 -18 -110 -21 -127 -2 -16
-11 -66 -19 -110 -8 -44 -17 -95 -20 -112 -10 -64 -16 -99 -35 -208 -10 -60
-22 -130 -25 -155 -18 -125 -26 -47 -42 400 -10 279 -10 265 8 262 11 -1 16 6
16 28 0 18 -5 29 -11 27 -6 -2 -17 3 -23 12 -11 14 -13 14 -19 -5 -4 -16 -12
-20 -27 -17 -21 4 -21 4 -4 -10 12 -10 14 -17 8 -22 -17 -10 -13 -26 6 -23 14
3 17 -9 19 -82 2 -83 7 -200 20 -505 4 -82 11 -161 17 -175 6 -14 11 -28 11
-32 1 -5 6 -7 11 -5 6 1 9 8 9 15 -1 6 5 12 13 12 8 0 12 -4 8 -9 -3 -5 -1
-12 4 -15 5 -3 7 -16 5 -29 l-5 -22 16 22 c16 21 18 21 41 6 30 -19 30 -27 2
-40 -12 -5 -17 -12 -12 -15 5 -4 39 7 74 24 117 54 172 79 439 194 245 106
265 113 277 97 9 -13 13 -14 14 -4 0 8 6 11 16 7 13 -5 15 -2 11 14 -3 12 1
24 11 30 14 8 12 9 -12 10 -21 0 -27 4 -23 15 4 8 2 17 -3 20 -5 3 -11 -4 -15
-14 -4 -13 -12 -18 -22 -14 -12 5 -14 1 -9 -14 5 -16 0 -22 -26 -30 -33 -11
-378 -160 -512 -222 -38 -17 -71 -29 -73 -27 -5 5 61 43 257 148 167 90 273
148 398 218 34 19 62 41 62 48 0 7 -3 11 -7 9 -5 -2 -51 -29 -103 -59 -52 -31
-194 -108 -315 -173 -198 -106 -296 -161 -362 -203 -13 -8 -23 -12 -23 -10 0
5 139 131 220 198 29 25 85 72 124 105 39 33 107 91 152 127 79 66 82 67 92
45 l11 -22 0 23 c1 13 5 21 10 17 5 -3 12 -1 15 4 4 5 2 13 -4 16 -8 5 -7 12
2 23 11 13 10 15 -10 10 -15 -4 -25 -2 -29 8 -3 8 -10 14 -15 14 -6 0 -8 -7
-4 -15 4 -10 -1 -15 -14 -15 -24 0 -27 -17 -4 -22 10 -2 -49 -58 -158 -148
-95 -79 -178 -149 -184 -155 -6 -5 -23 -20 -38 -33 -15 -12 -68 -60 -119 -105
l-92 -82 89 105 c49 58 105 123 125 146 20 22 55 63 78 90 23 27 53 63 68 79
95 109 255 317 250 325 -4 6 -43 -36 -87 -92 -73 -93 -224 -275 -239 -288 -3
-3 -61 -70 -129 -150 -68 -80 -135 -156 -148 -170 l-24 -25 12 24 c26 51 374
617 391 635 5 5 15 3 25 -5 16 -13 17 -12 12 9 -5 16 -2 22 10 22 15 1 16 2 1
13 -9 7 -14 18 -12 25 6 15 -9 16 -25 0 -9 -9 -12 -9 -12 0 0 7 -7 12 -15 12
-9 0 -12 -6 -9 -15 4 -8 -1 -17 -10 -21 -9 -3 -13 -10 -10 -15 3 -5 10 -7 15
-4 5 4 9 2 9 -3 0 -8 -152 -259 -189 -312 -34 -48 -161 -261 -161 -269 0 -5
-7 -14 -16 -21 -13 -12 -14 -10 -2 16 7 16 93 188 190 383 166 330 190 382
171 380 -7 0 -210 -404 -376 -746 -21 -43 -36 -69 -33 -58 3 11 12 49 21 85
10 36 18 72 20 81 11 58 144 549 151 561 3 5 15 6 27 2 19 -6 20 -5 8 10 -9
10 -10 16 -2 16 6 0 11 7 11 15 0 9 -6 12 -15 9 -11 -5 -13 -2 -9 10 3 9 1 16
-5 16 -7 0 -14 -7 -17 -15 -5 -13 -8 -13 -21 1 -19 19 -30 10 -13 -11 10 -12
9 -16 -4 -21 -9 -3 -13 -10 -10 -16 3 -5 12 -7 19 -4 9 3 8 -11 -5 -57 -45
-161 -81 -294 -115 -432 -20 -82 -42 -154 -47 -160 -7 -7 -9 -6 -5 1 3 6 9 33
12 60 9 66 12 83 30 174 2 14 7 41 10 60 3 19 14 85 25 145 11 61 22 128 25
150 4 22 13 80 21 129 11 62 12 92 5 99 -6 6 -11 8 -11 4z m65 -967 c-3 -5
-12 -10 -18 -10 -7 0 -6 4 3 10 19 12 23 12 15 0z"/>
<path d="M1528 2418 c12 -12 24 -19 28 -15 10 10 -16 37 -34 37 -13 0 -12 -4
6 -22z"/>
<path d="M1741 2405 c12 -19 25 -35 31 -35 5 0 8 3 6 8 -24 50 -33 62 -44 62
-10 0 -7 -10 7 -35z"/>
<path d="M1812 2412 c-13 -17 -18 -33 -13 -37 12 -7 44 40 39 56 -2 7 -14 -1
-26 -19z"/>
<path d="M1140 2416 c25 -14 40 -13 40 5 0 5 -15 9 -32 9 l-33 -1 25 -13z"/>
<path d="M848 2398 c-10 -12 -16 -23 -14 -26 7 -7 46 23 46 35 0 19 -13 15
-32 -9z"/>
<path d="M1042 2402 c-13 -13 -20 -27 -17 -32 8 -13 48 25 43 41 -3 9 -11 6
-26 -9z"/>
<path d="M720 2360 c0 -5 6 -10 13 -11 6 0 24 -3 40 -5 32 -6 37 11 5 20 -34
9 -58 7 -58 -4z"/>
<path d="M1703 2354 c-16 -12 -15 -14 15 -12 39 3 50 13 22 21 -10 3 -27 -1
-37 -9z"/>
<path d="M1814 2359 c-6 -11 -7 -10 29 -13 16 -2 26 1 24 8 -4 13 -45 17 -53
5z"/>
<path d="M863 2347 c5 -15 39 -16 44 -2 2 6 -8 12 -23 13 -17 1 -24 -2 -21
-11z"/>
<path d="M820 2339 c0 -6 38 -89 85 -185 47 -97 85 -177 85 -179 0 -18 261
-535 268 -531 5 3 -27 81 -73 173 -45 93 -102 211 -126 263 -71 154 -228 470
-234 470 -3 0 -5 -5 -5 -11z"/>
<path d="M776 2308 c-9 -12 -16 -26 -16 -30 0 -16 18 -7 34 16 20 31 3 44 -18
14z"/>
<path d="M1806 2322 c-3 -5 3 -17 14 -27 17 -15 20 -16 20 -3 0 19 -26 42 -34
30z"/>
<path d="M1980 2291 c0 -19 23 -71 31 -71 13 0 11 17 -6 50 -15 30 -25 38 -25
21z"/>
<path d="M2057 2252 c-28 -30 -20 -49 8 -22 25 24 32 40 17 40 -5 0 -16 -8
-25 -18z"/>
<path d="M1930 2211 c0 -5 14 -11 30 -13 20 -3 30 0 30 9 0 8 -12 13 -30 13
-16 0 -30 -4 -30 -9z"/>
<path d="M481 2178 l-12 -33 -19 23 c-18 22 -40 30 -40 14 0 -5 10 -17 23 -28
26 -23 62 -12 71 20 9 36 -11 39 -23 4z"/>
<path d="M2056 2202 c-3 -3 -3 -9 0 -13 7 -12 54 -12 54 0 0 10 -47 21 -54 13z"/>
<path d="M730 2157 c0 -15 -3 -26 -7 -24 -5 1 -8 -2 -8 -8 0 -5 3 -9 8 -7 4 1
7 -7 7 -18 0 -22 16 -27 23 -7 5 15 -2 24 82 -103 62 -93 190 -279 231 -335 8
-11 46 -66 86 -122 39 -57 75 -103 80 -103 14 0 -8 35 -152 240 -115 165 -279
406 -303 446 -4 7 0 11 10 10 9 0 18 5 20 12 3 6 -2 12 -11 12 -9 0 -16 7 -16
16 0 13 -3 14 -13 5 -10 -8 -17 -7 -25 1 -9 9 -12 6 -12 -15z"/>
<path d="M2037 2150 c6 -22 21 -35 29 -27 7 7 -15 47 -25 47 -5 0 -7 -9 -4
-20z"/>
<path d="M528 2153 c-10 -2 -18 -9 -18 -14 0 -15 43 -7 48 9 4 12 0 13 -30 5z"/>
<path d="M477 2123 c-3 -5 85 -95 196 -200 111 -106 274 -264 361 -353 160
-161 221 -210 128 -102 -62 71 -464 464 -649 635 -17 16 -33 25 -36 20z"/>
<path d="M412 2112 c-21 -6 -31 -20 -17 -23 18 -4 65 12 60 21 -7 11 -9 11
-43 2z"/>
<path d="M454 2065 c-6 -24 0 -44 10 -34 11 11 17 59 7 59 -6 0 -13 -11 -17
-25z"/>
<path d="M2289 1995 c-1 -14 -2 -29 -3 -35 -1 -5 3 -11 9 -12 5 -2 11 14 13
35 2 22 -1 37 -7 37 -6 0 -12 -11 -12 -25z"/>
<path d="M297 1963 c-6 -33 2 -51 14 -32 11 18 11 59 0 59 -5 0 -11 -12 -14
-27z"/>
<path d="M2216 1962 c-7 -11 42 -38 51 -29 3 4 -2 14 -13 22 -22 17 -31 18
-38 7z"/>
<path d="M230 1952 c0 -13 35 -42 50 -42 9 0 5 9 -10 25 -24 25 -40 32 -40 17z"/>
<path d="M2340 1942 c-31 -14 -33 -16 -13 -19 24 -5 71 21 56 30 -4 3 -24 -2
-43 -11z"/>
<path d="M344 1936 c-10 -8 -17 -16 -14 -19 8 -8 50 11 50 23 0 14 -13 13 -36
-4z"/>
<path d="M485 1940 c-3 -5 -12 -7 -20 -3 -18 6 -20 -8 -3 -25 9 -9 7 -13 -5
-18 -24 -9 -21 -27 3 -19 14 5 20 2 20 -9 0 -20 17 -21 22 -1 2 11 17 4 54
-25 28 -21 136 -100 240 -174 212 -152 202 -146 264 -186 25 -17 42 -30 38
-30 -9 0 -145 79 -386 224 -106 64 -194 116 -196 116 -2 0 -41 22 -87 50 -79
47 -118 62 -105 41 4 -5 37 -26 74 -47 37 -21 193 -113 347 -204 404 -240 438
-259 448 -253 6 3 1 13 -10 22 -12 9 -22 21 -24 28 -2 6 -83 67 -178 134 -246
171 -461 329 -461 338 0 4 5 12 12 19 9 9 7 12 -11 12 -12 0 -19 4 -16 10 3 6
2 10 -4 10 -5 0 -12 -4 -16 -10z"/>
<path d="M2320 1899 c0 -12 29 -38 43 -39 16 0 6 18 -18 34 -16 11 -25 12 -25
5z"/>
<path d="M244 1880 c-25 -10 -41 -30 -24 -30 13 0 70 29 70 35 0 7 -22 5 -46
-5z"/>
<path d="M2287 1873 c-2 -5 -2 -14 -1 -20 1 -7 2 -18 3 -24 2 -20 21 3 21 27
0 22 -14 33 -23 17z"/>
<path d="M288 1845 c-3 -14 1 -30 8 -36 11 -9 14 -5 14 25 0 41 -15 49 -22 11z"/>
<path d="M2402 1718 c-9 -35 -5 -56 8 -41 14 14 22 73 11 73 -6 0 -14 -15 -19
-32z"/>
<path d="M2330 1712 c0 -14 39 -46 47 -39 3 4 -2 16 -12 27 -19 21 -35 26 -35
12z"/>
<path d="M360 1688 c0 -12 -8 -18 -22 -18 -22 -1 -22 -1 -4 -15 15 -11 16 -17
8 -28 -15 -17 -3 -30 14 -16 8 7 14 7 19 -1 10 -16 28 -12 21 6 -5 13 -2 14
11 9 10 -4 170 -59 356 -122 293 -100 368 -121 345 -98 -3 3 -151 54 -329 115
-387 130 -393 132 -377 148 6 6 8 15 3 19 -4 5 -10 2 -12 -5 -4 -10 -9 -8 -19
5 -13 17 -13 17 -14 1z"/>
<path d="M2443 1673 c-28 -5 -30 -23 -4 -23 26 0 51 10 51 21 0 9 -8 10 -47 2z"/>
<path d="M2305 1634 c-38 -13 -79 -26 -90 -28 -11 -3 -49 -14 -85 -25 -72 -22
-152 -45 -469 -130 -118 -32 -217 -63 -219 -69 -2 -7 2 -10 10 -7 7 2 24 7 38
9 23 4 48 11 193 50 117 32 213 58 227 61 31 7 367 106 428 126 34 11 62 25
62 30 0 13 -17 10 -95 -17z"/>
<path d="M2420 1634 c0 -16 23 -44 36 -44 12 0 12 4 -2 25 -15 23 -34 34 -34
19z"/>
<path d="M2388 1614 c-5 -4 -8 -19 -8 -33 0 -18 3 -22 11 -14 6 6 9 21 7 33
-1 12 -6 18 -10 14z"/>
<path d="M160 1574 c14 -36 14 -37 -25 -30 -45 9 -47 -10 -3 -22 28 -7 34 -5
45 14 14 27 6 64 -13 64 -10 0 -11 -6 -4 -26z"/>
<path d="M221 1581 c-13 -23 -14 -31 -3 -31 13 0 32 39 22 45 -5 3 -14 -3 -19
-14z"/>
<path d="M190 1520 c0 -5 6 -10 13 -11 29 -1 298 -42 357 -54 13 -2 42 -7 65
-10 50 -8 302 -52 373 -66 28 -6 52 -14 52 -18 0 -4 -141 -7 -312 -6 -423 3
-388 1 -388 26 0 18 -2 19 -15 9 -11 -9 -15 -9 -15 -1 0 7 -5 9 -11 6 -6 -4
-8 -13 -5 -21 3 -8 0 -13 -6 -11 -6 1 -13 -4 -15 -10 -3 -7 3 -13 12 -13 12 0
15 -6 10 -20 -3 -11 -2 -20 3 -20 6 0 12 6 15 13 3 9 8 8 22 -3 17 -14 18 -13
13 5 -5 20 0 20 376 20 288 0 380 3 379 12 -2 8 9 10 35 6 27 -4 34 -3 26 6
-9 10 -69 24 -189 45 -16 2 -93 16 -170 30 -77 13 -160 27 -185 31 -25 3 -52
8 -60 10 -8 2 -31 6 -50 9 -19 3 -94 14 -167 26 -151 23 -163 24 -163 10z
m890 -160 c0 -5 -2 -10 -4 -10 -3 0 -8 5 -11 10 -3 6 -1 10 4 10 6 0 11 -4 11
-10z"/>
<path d="M140 1470 c-28 -40 -3 -40 28 1 18 22 20 29 8 29 -8 0 -24 -13 -36
-30z"/>
<path d="M2284 1486 c-3 -8 -13 -12 -26 -8 -16 4 -20 2 -15 -10 6 -17 5 -17
-158 -33 -27 -3 -81 -7 -120 -10 -38 -3 -86 -7 -105 -10 -19 -2 -57 -7 -85
-10 -204 -21 -305 -37 -305 -46 0 -11 17 -11 100 1 36 5 92 11 124 15 33 3 73
8 90 10 33 5 97 11 211 21 39 3 108 10 155 15 113 12 110 12 110 -13 0 -16 3
-19 11 -11 6 6 18 9 27 6 10 -4 13 -1 10 8 -3 8 2 19 11 26 14 11 14 12 -5 13
-17 0 -20 5 -16 25 5 27 -5 34 -14 11z"/>
<path d="M200 1479 c0 -6 5 -19 11 -30 15 -28 29 -14 16 16 -12 25 -27 33 -27
14z"/>
<path d="M2458 1415 c-19 -37 -11 -47 14 -17 22 25 30 52 15 52 -7 0 -20 -16
-29 -35z"/>
<path d="M2390 1433 c0 -5 9 -19 20 -33 21 -26 27 -12 10 21 -10 19 -30 26
-30 12z"/>
<path d="M2326 1362 c-3 -3 -233 -10 -511 -17 -249 -5 -356 -13 -370 -27 -7
-6 32 -7 115 -3 69 3 211 8 315 10 265 5 488 15 538 24 4 0 7 6 7 11 0 9 -86
11 -94 2z"/>
<path d="M2468 1357 c7 -8 23 -13 36 -13 27 2 48 15 25 17 -8 0 -27 3 -43 5
-24 4 -27 3 -18 -9z"/>
<path d="M2450 1335 c0 -12 24 -55 32 -55 11 0 10 17 -2 41 -9 17 -30 27 -30
14z"/>
<path d="M114 1310 c3 -14 6 -28 6 -32 0 -5 5 -8 10 -8 15 0 12 24 -6 46 -15
18 -15 18 -10 -6z"/>
<path d="M173 1313 c-3 -10 -8 -21 -10 -25 -2 -5 0 -8 6 -8 16 0 33 38 21 45
-6 3 -13 -2 -17 -12z"/>
<path d="M2410 1309 c-15 -28 -4 -38 15 -13 17 22 19 34 5 34 -5 0 -14 -9 -20
-21z"/>
<path d="M1017 1313 c-4 -3 -162 -14 -402 -28 -223 -12 -346 -23 -354 -31 -14
-13 22 -15 136 -5 70 6 178 13 238 16 153 8 348 22 450 31 94 8 61 -3 -63 -21
-62 -9 -123 -18 -135 -20 -11 -3 -37 -7 -57 -10 -20 -3 -45 -7 -55 -9 -20 -4
-213 -33 -272 -41 -18 -3 -61 -8 -97 -11 -64 -6 -66 -6 -66 17 -1 22 -2 22
-14 7 -10 -14 -15 -15 -26 -5 -10 10 -12 8 -7 -10 3 -13 0 -21 -5 -20 -6 1
-13 -4 -15 -10 -3 -8 4 -13 15 -13 16 0 19 -5 15 -22 -4 -21 -3 -21 9 -6 10
12 18 14 32 6 15 -9 17 -7 11 11 -5 18 -2 21 22 22 41 1 295 35 408 55 17 3
39 7 50 9 11 1 67 10 125 19 58 9 128 19 155 22 57 7 68 11 59 25 -3 5 -10 7
-15 4 -5 -3 -6 1 -3 10 6 14 -3 15 -66 13 -39 -2 -72 -4 -73 -5z"/>
<path d="M1425 1292 c6 -5 91 -13 190 -16 174 -6 249 -11 345 -20 25 -3 106
-8 181 -12 127 -6 136 -8 132 -25 -3 -11 0 -19 6 -19 6 0 11 5 11 12 0 9 3 9
12 0 16 -16 29 -15 22 2 -3 7 2 16 11 20 9 3 13 10 10 16 -4 6 -11 8 -16 4 -6
-3 -7 5 -3 23 6 27 6 27 -11 11 -17 -16 -19 -16 -32 0 -13 16 -14 15 -10 -6
l5 -22 -116 5 c-65 3 -144 8 -177 10 -152 13 -192 15 -375 21 -130 4 -192 3
-185 -4z"/>
<path d="M77 1262 c-9 -2 -15 -8 -12 -13 8 -12 65 -12 65 0 0 11 -29 18 -53
13z"/>
<path d="M1456 1261 c8 -9 143 -41 232 -56 18 -3 64 -12 102 -20 38 -8 84 -17
102 -20 18 -3 40 -8 48 -10 8 -2 26 -6 40 -9 50 -8 256 -45 285 -51 68 -13
150 -17 140 -7 -5 6 -30 13 -55 16 -25 3 -56 8 -70 11 -14 3 -45 8 -70 11 -25
3 -88 15 -140 25 -52 11 -111 22 -130 25 -19 3 -43 7 -52 10 -10 3 -28 7 -40
9 -13 3 -101 20 -196 40 -184 37 -212 41 -196 26z"/>
<path d="M1129 1246 c-2 -3 -16 -7 -29 -9 -47 -9 -345 -96 -555 -162 -116 -37
-214 -67 -220 -69 -58 -14 -125 -38 -130 -46 -11 -18 20 -11 167 36 210 67
279 88 418 129 69 20 160 47 204 60 43 13 75 20 70 16 -8 -7 -104 -58 -424
-222 -36 -19 -99 -49 -140 -68 -41 -19 -79 -36 -83 -39 -5 -2 -7 3 -5 11 2 9
-1 16 -7 15 -5 0 -9 -4 -8 -8 1 -4 -8 -5 -20 -2 -19 5 -20 3 -9 -10 10 -13 10
-17 -3 -22 -9 -3 -14 -10 -10 -15 3 -6 12 -8 19 -5 8 3 16 -4 19 -16 3 -12 10
-19 16 -16 6 4 8 13 5 21 -4 10 0 12 15 8 12 -3 21 -1 21 6 0 6 -5 11 -11 11
-6 0 137 75 317 166 180 91 343 176 363 190 20 13 41 24 48 24 6 0 15 5 18 10
6 10 -37 15 -46 6z"/>
<path d="M1465 1229 c-4 -5 0 -11 7 -13 167 -56 340 -117 570 -201 145 -54
156 -60 147 -78 -9 -16 -8 -18 10 -12 12 4 21 2 21 -4 0 -6 5 -11 10 -11 6 0
10 7 10 15 0 9 6 12 15 9 21 -8 19 13 -2 25 -10 6 -12 11 -5 11 6 0 12 6 12
14 0 9 -7 12 -20 9 -11 -3 -20 0 -20 6 0 6 -5 11 -11 11 -6 0 -9 -7 -5 -15 3
-8 4 -15 2 -15 -5 0 -139 47 -226 80 -223 84 -510 178 -515 169z"/>
<path d="M121 1202 c-12 -18 -19 -37 -16 -43 4 -6 15 2 27 21 26 44 17 61 -11
22z"/>
<path d="M170 1211 c0 -21 13 -41 26 -41 17 0 17 10 0 33 -14 19 -26 22 -26 8z"/>
<path d="M1105 1193 c-46 -31 -331 -204 -586 -357 -166 -100 -217 -136 -191
-136 10 0 71 36 202 119 14 9 34 21 45 27 121 66 595 361 595 369 0 12 -28 2
-65 -22z"/>
<path d="M1430 1206 c8 -7 67 -42 130 -78 63 -35 219 -127 345 -204 262 -159
351 -207 367 -202 7 3 -26 26 -72 52 -119 68 -116 66 -410 243 -146 88 -284
170 -307 182 -49 24 -75 28 -53 7z"/>
<path d="M1256 1201 c-4 -6 -11 -9 -16 -6 -5 3 -14 -4 -20 -15 -6 -11 -15 -19
-21 -17 -6 1 -25 -23 -41 -53 -47 -87 -193 -351 -217 -392 -11 -21 -30 -55
-42 -75 -34 -61 -91 -157 -102 -171 -8 -9 -13 -8 -24 5 -13 17 -14 16 -10 -4
4 -15 0 -23 -9 -23 -8 0 -14 -4 -14 -10 0 -5 7 -10 15 -10 9 0 12 -6 9 -15 -7
-17 11 -20 22 -4 5 8 10 6 16 -5 11 -19 30 -12 22 8 -3 8 -1 17 5 21 17 10 13
25 -5 18 -9 -3 5 28 34 78 27 46 60 102 72 124 12 22 25 45 30 50 4 6 25 44
47 85 23 41 57 104 77 140 20 36 54 100 76 143 22 42 42 77 44 77 7 0 -87
-211 -189 -425 -70 -147 -143 -308 -175 -382 -34 -79 -18 -88 18 -10 18 38 32
70 32 72 0 2 17 41 39 87 65 138 112 240 142 306 16 34 43 92 60 130 17 37 49
108 71 157 41 93 56 119 44 75 -4 -14 -9 -36 -12 -50 -10 -51 -165 -667 -180
-718 -13 -44 -18 -51 -30 -41 -19 16 -30 4 -14 -16 10 -12 9 -15 -6 -15 -18
-1 -18 -1 -1 -14 9 -7 17 -18 17 -25 0 -17 17 -13 24 5 5 12 10 14 20 5 17
-14 29 -2 15 16 -9 9 -8 13 0 13 6 0 11 7 11 15 0 8 -6 14 -12 12 -16 -3 -18
-13 37 192 26 96 49 185 51 199 3 14 16 70 31 126 14 55 26 106 28 111 1 6 6
29 10 53 4 23 12 45 18 49 5 3 8 2 5 -3 -3 -5 -9 -31 -12 -59 -4 -27 -18 -113
-31 -190 -48 -281 -64 -371 -69 -400 -34 -208 -40 -273 -22 -254 2 2 22 117
45 254 22 138 43 261 46 275 3 14 7 39 10 55 3 17 8 42 11 57 3 15 7 42 9 60
3 18 7 44 9 58 7 34 18 112 19 128 0 7 4 9 8 5 7 -8 14 -149 25 -537 6 -188 5
-208 -10 -203 -17 7 -32 -8 -17 -18 6 -3 7 -13 4 -22 -5 -12 -2 -15 10 -10 11
4 17 1 17 -8 0 -8 5 -15 10 -15 6 0 10 10 10 21 0 18 2 19 15 9 20 -16 32 -5
16 14 -8 10 -9 16 -1 21 15 9 2 25 -15 18 -13 -4 -15 13 -16 108 -1 117 -2
154 -13 419 -9 222 -16 279 -34 289 -8 5 -13 15 -9 23 7 20 -8 45 -17 29z"/>
<path d="M1159 1187 c-15 -7 -91 -73 -169 -147 -79 -74 -159 -151 -180 -170
-49 -47 -177 -161 -216 -194 -28 -23 -33 -24 -38 -9 -6 14 -9 13 -28 -6 -15
-17 -18 -25 -8 -31 9 -5 9 -9 1 -14 -6 -4 -9 -12 -5 -17 4 -6 10 -6 19 1 9 8
14 6 19 -5 3 -8 10 -15 17 -15 6 0 9 7 5 15 -4 11 1 15 17 15 21 1 21 1 4 14
-17 13 -17 15 6 33 14 11 62 53 107 94 89 80 106 95 226 208 43 41 108 102
144 135 35 34 57 52 48 41 -8 -11 -78 -99 -155 -195 -237 -299 -404 -521 -401
-532 4 -11 56 51 198 238 41 54 155 198 253 320 97 123 177 225 177 228 0 9
-12 7 -41 -7z"/>
<path d="M1390 1181 c0 -6 5 -13 11 -16 6 -4 8 -12 6 -19 -3 -7 9 -32 26 -56
52 -76 181 -272 221 -335 20 -33 66 -105 101 -160 36 -55 65 -103 65 -107 0
-5 -7 -8 -15 -8 -8 0 -15 -4 -15 -10 0 -5 7 -10 15 -10 8 0 14 -3 14 -8 -3
-19 2 -26 10 -13 8 13 12 13 27 0 16 -13 17 -12 12 8 -4 16 0 23 14 26 11 3
17 10 14 16 -4 6 -14 7 -23 4 -12 -5 -15 -2 -10 10 7 19 -8 33 -18 17 -8 -13
-27 12 -110 146 -33 53 -105 164 -160 248 -55 83 -109 165 -119 181 -11 17 43
-31 119 -105 280 -274 464 -444 484 -448 16 -3 -22 35 -333 332 -93 88 -203
196 -245 239 -72 74 -91 88 -91 68z"/>
<path d="M1440 1172 c0 -4 52 -43 116 -87 114 -78 409 -287 429 -303 9 -7 83
-62 94 -69 2 -1 -2 -9 -9 -18 -10 -12 -10 -15 3 -15 8 0 18 -6 21 -12 4 -10 8
-10 11 -2 3 7 15 10 25 7 22 -6 28 12 8 21 -9 3 -8 8 5 16 19 13 14 32 -7 24
-7 -3 -16 2 -20 11 -3 9 -10 13 -16 10 -6 -4 -7 -11 -4 -17 12 -19 -58 27
-166 110 -89 68 -474 332 -483 332 -4 0 -7 -3 -7 -8z"/>
<path d="M2373 1140 c10 -27 27 -41 27 -22 -1 24 -14 52 -25 52 -11 0 -11 -6
-2 -30z"/>
<path d="M2433 1141 c-12 -16 -19 -31 -16 -35 9 -8 53 34 53 51 0 20 -13 15
-37 -16z"/>
<path d="M1314 1119 c11 -52 13 -62 46 -254 17 -99 37 -211 45 -250 7 -38 16
-86 19 -105 3 -19 8 -46 11 -60 3 -14 7 -36 10 -50 27 -137 50 -230 57 -230
12 0 12 2 -36 243 -25 122 -64 330 -86 462 -23 132 -43 247 -44 254 -2 8 -9
17 -16 19 -10 4 -11 -3 -6 -29z"/>
<path d="M1354 1123 c120 -359 246 -740 246 -746 0 -4 -4 -6 -8 -3 -4 2 -14 1
-22 -4 -12 -8 -12 -10 2 -15 10 -4 14 -13 11 -22 -5 -13 -3 -13 15 -4 18 10
22 9 22 -4 0 -8 5 -15 11 -15 6 0 8 9 4 20 -5 16 -2 20 14 20 12 0 21 5 21 10
0 6 -6 10 -14 10 -10 0 -12 7 -8 23 5 19 4 20 -11 8 -14 -11 -18 -11 -22 0 -2
8 -32 100 -65 204 -34 105 -79 244 -102 310 -22 66 -43 127 -45 135 -10 34 74
-149 154 -335 133 -312 191 -435 205 -435 12 0 12 -2 -36 101 -24 52 -92 206
-150 343 -126 292 -183 409 -196 401 -6 -3 -10 -1 -10 4 0 6 -5 11 -11 11 -6
0 -9 -8 -5 -17z"/>
<path d="M2430 1082 c0 -5 7 -13 16 -16 24 -9 54 -7 54 4 0 6 -9 10 -19 10
-11 0 -26 3 -35 6 -9 3 -16 2 -16 -4z"/>
<path d="M2415 1045 c8 -37 25 -57 25 -29 0 11 -7 29 -16 40 -15 18 -15 18 -9
-11z"/>
<path d="M2362 1035 c-14 -29 2 -34 18 -6 12 24 13 31 2 31 -5 0 -14 -11 -20
-25z"/>
<path d="M197 1015 c-3 -16 0 -24 7 -22 14 4 21 47 8 47 -5 0 -12 -11 -15 -25z"/>
<path d="M140 1001 c11 -22 29 -35 36 -28 9 8 -20 47 -34 47 -9 0 -10 -5 -2
-19z"/>
<path d="M132 952 c-20 -6 -31 -21 -17 -23 18 -2 64 14 59 22 -6 10 -8 10 -42
1z"/>
<path d="M181 916 c-6 -16 -10 -39 -8 -50 3 -18 5 -17 16 8 6 16 10 39 8 50
-3 18 -5 17 -16 -8z"/>
<path d="M220 927 c0 -14 39 -41 48 -33 5 6 -32 46 -43 46 -3 0 -5 -6 -5 -13z"/>
<path d="M2290 770 c0 -16 5 -30 10 -30 6 0 10 14 10 30 0 17 -4 30 -10 30 -5
0 -10 -13 -10 -30z"/>
<path d="M290 749 c0 -17 4 -28 10 -24 6 3 10 17 10 31 0 13 -4 24 -10 24 -5
0 -10 -14 -10 -31z"/>
<path d="M2342 745 c-18 -8 -31 -19 -27 -24 6 -11 75 17 75 31 0 11 -9 10 -48
-7z"/>
<path d="M230 742 c0 -13 39 -46 46 -39 3 3 3 10 -1 16 -9 15 -45 33 -45 23z"/>
<path d="M2310 690 c0 -5 -6 -10 -13 -10 -7 0 -14 -13 -15 -30 -1 -16 2 -30 8
-30 5 0 10 11 10 23 0 33 9 38 36 20 33 -21 45 -6 14 17 -28 22 -40 25 -40 10z"/>
<path d="M244 680 c-24 -10 -41 -30 -25 -30 17 0 61 23 61 32 0 10 -8 9 -36
-2z"/>
<path d="M2227 683 c-10 -9 -9 -23 1 -23 5 0 17 7 28 15 19 14 19 14 -2 15
-11 0 -24 -3 -27 -7z"/>
<path d="M330 666 c0 -15 21 -26 48 -26 13 0 11 5 -8 20 -30 23 -40 25 -40 6z"/>
<path d="M297 663 c-11 -10 -8 -73 3 -73 6 0 10 18 10 40 0 41 -2 45 -13 33z"/>
<path d="M2126 554 c-4 -15 -4 -29 -1 -32 8 -8 25 19 25 41 0 26 -17 20 -24
-9z"/>
<path d="M2158 513 c-10 -2 -18 -9 -18 -15 0 -12 59 -3 74 12 10 10 -22 12
-56 3z"/>
<path d="M530 481 c0 -21 13 -41 26 -41 11 0 11 5 2 25 -11 24 -28 34 -28 16z"/>
<path d="M2044 465 c-16 -12 -17 -14 -2 -15 23 0 48 11 48 21 0 14 -24 11 -46
-6z"/>
<path d="M2139 452 c14 -25 38 -45 44 -35 7 10 -28 53 -42 53 -8 0 -9 -6 -2
-18z"/>
<path d="M2096 434 c-6 -24 -2 -43 8 -33 11 10 17 59 8 59 -5 0 -13 -12 -16
-26z"/>
<path d="M486 421 c14 -15 64 -25 64 -13 0 12 -24 22 -53 22 -13 0 -17 -4 -11
-9z"/>
<path d="M600 405 c0 -2 9 -9 19 -15 21 -11 54 -3 45 11 -5 9 -64 13 -64 4z"/>
<path d="M527 372 c-28 -30 -20 -49 8 -22 25 24 32 40 17 40 -5 0 -16 -8 -25
-18z"/>
<path d="M580 384 c0 -6 5 -25 11 -43 14 -39 34 -42 24 -3 -6 28 -35 65 -35
46z"/>
<path d="M1807 316 c-10 -15 -16 -30 -13 -34 11 -10 38 25 34 44 -3 15 -6 14
-21 -10z"/>
<path d="M757 322 c-3 -4 3 -18 12 -31 10 -13 21 -20 24 -15 3 5 -3 19 -13 32
-10 12 -21 19 -23 14z"/>
<path d="M844 259 c-2 -4 1 -11 6 -14 14 -9 65 4 55 13 -9 9 -55 10 -61 1z"/>
<path d="M1690 260 c0 -5 11 -10 25 -10 14 0 25 5 25 10 0 6 -11 10 -25 10
-14 0 -25 -4 -25 -10z"/>
<path d="M1800 262 c0 -13 25 -22 58 -22 34 0 18 16 -25 25 -20 4 -33 3 -33
-3z"/>
<path d="M725 250 c3 -5 20 -10 36 -10 18 0 28 4 24 10 -3 6 -20 10 -36 10
-18 0 -28 -4 -24 -10z"/>
<path d="M826 231 c-4 -6 3 -25 15 -43 28 -39 38 -19 11 23 -12 20 -22 27 -26
20z"/>
<path d="M1548 226 c-20 -15 -24 -40 -6 -34 14 5 43 48 32 48 -5 0 -17 -7 -26
-14z"/>
<path d="M1732 219 c-17 -27 -5 -40 14 -15 8 11 14 23 14 28 0 15 -15 8 -28
-13z"/>
<path d="M1778 234 c-9 -8 12 -64 24 -64 6 0 7 11 3 28 -7 30 -18 45 -27 36z"/>
<path d="M770 211 c-5 -11 -10 -24 -10 -30 0 -17 17 -13 24 7 3 9 9 23 12 30
9 20 -14 14 -26 -7z"/>
<path d="M1043 195 c4 -9 7 -19 7 -21 0 -2 9 -4 21 -4 23 0 17 15 -13 31 -18
10 -20 9 -15 -6z"/>
<path d="M1420 191 c0 -9 41 -23 48 -16 2 2 1 8 -3 14 -8 13 -45 15 -45 2z"/>
<path d="M1158 173 c-10 -2 -18 -9 -18 -14 0 -15 53 -6 58 9 4 12 -8 14 -40 5z"/>
<path d="M1532 168 c2 -5 18 -16 36 -24 26 -10 32 -11 32 0 0 7 -16 18 -36 24
-23 7 -34 7 -32 0z"/>
<path d="M1455 140 c-24 -27 -14 -35 15 -12 14 11 19 21 13 25 -6 4 -18 -2
-28 -13z"/>
<path d="M1500 121 c0 -29 14 -49 23 -34 8 12 -4 63 -14 63 -5 0 -9 -13 -9
-29z"/>
<path d="M1032 133 c-6 -2 -10 -8 -7 -13 6 -9 53 -1 61 11 5 9 -32 11 -54 2z"/>
<path d="M1127 134 c-9 -9 39 -57 52 -53 7 3 0 16 -17 32 -15 15 -31 24 -35
21z"/>
<path d="M1084 95 c-6 -24 0 -44 10 -34 11 11 17 59 7 59 -6 0 -13 -11 -17
-25z"/>
</g>
</svg>
